<?xml version="1.0" standalone="no"?><!DOCTYPE svg PUBLIC "-//W3C//DTD SVG 1.1//EN" "http://www.w3.org/Graphics/SVG/1.1/DTD/svg11.dtd"><svg t="1649347697619" class="icon" viewBox="0 0 1024 1024" version="1.1" xmlns="http://www.w3.org/2000/svg" p-id="30251" xmlns:xlink="http://www.w3.org/1999/xlink" width="16" height="16"><defs><style type="text/css"></style></defs><path d="M190.24191 179.557014c31.839811 25.855846 43.77574 23.903858 103.583385 19.871882l563.836653-33.823799c11.935929 0 2.015988-11.935929-1.951989-13.919918l-93.695443-67.711598c-17.919894-13.919917-41.855751-29.855823-87.67948-25.887846L128.418278 97.925499c-19.871882 1.951988-23.903858 11.935929-15.967906 19.871882z m33.855799 131.39122v593.244477c0 31.871811 15.903906 43.80774 51.807693 41.823752l619.644321-35.839787c35.871787-1.951988 39.903763-23.903858 39.903763-49.791705V271.10847c0-25.855846-9.951941-39.807764-31.903811-37.855775L256.00152 271.10847c-23.903858 2.015988-31.871811 13.951917-31.871811 39.839764z m611.708368 31.807811c3.967976 17.919894 0 35.839787-17.919893 37.887775l-29.855823 5.983964v437.9174c-25.951846 13.951917-49.823704 21.91987-69.759586 21.91987-31.903811 0-39.903763-9.983941-63.775621-39.807764l-195.294841-306.590179v296.606239l61.791634 13.983917s0 35.839787-49.823705 35.839787l-137.471183 7.935953c-3.967976-7.935953 0-27.871835 13.951917-31.839811l35.839787-9.951941V420.419584l-49.695705-3.999976c-3.999976-17.919894 5.983964-43.77574 33.823799-45.791729l147.455125-9.951941 203.262793 310.558157v-274.782369l-51.839692-5.919965c-3.967976-21.91987 11.935929-37.855775 31.87181-39.807763zM82.59455 44.165818L650.495178 2.342066c69.727586-5.983964 87.679479-2.015988 131.487219 29.855823l181.278924 127.391243c29.855823 21.88787 39.839763 27.871835 39.839763 51.743693v698.779851c0 43.77574-15.903906 69.727586-71.679574 73.631563L271.873426 1023.584002c-41.823752 2.015988-61.791633-3.967976-83.711503-31.87181l-133.503208-173.214972C30.754857 786.625409 20.834916 762.785551 20.834916 734.881717V113.733405c0-35.807787 15.967905-65.69561 61.727634-69.631587z" p-id="30252" fill="#e4e4e4"></path></svg>